#!OML:ASF E:\motion texture\Top Level 1\Subject 1\Session 1\male.ASF
:FULLY-SPECIFIED
:DEGREES
453
root -16.6132 18.1208 1.81397 88.6681 -81.2385 -79.1898
lowerback 1.08244 4.03565 8.14896
upperback -1.75074 5.49638 4.79879
thorax -2.13058 2.57085 0.283023
lowerneck -14.9616 3.21897 -0.388905
upperneck 9.47567 3.98054 3.19103
head 5.21435 2.15979 1.40912
rclavicle -2.82274e-014 2.8625e-014
rhumerus -10.0922 7.7103 -87.7413
rradius 39.5073
rwrist 9.30819
rhand -14.8259 -27.4492
rfingers 7.12502
rthumb 11.3327 -57.123
lclavicle -2.82274e-014 2.8625e-014
lhumerus -33.3557 8.37219 83.7892
lradius 38.4276
lwrist -20.1561
lhand -13.1912 20.1021
lfingers 7.12502
lthumb 12.9089 49.6828
rfemur -7.46044 1.49806 35.3364
rtibia 14.3047
rfoot -10.2249 -11.7628
rtoes 15.17
lfemur -30.2766 -0.464782 -4.87625
ltibia 38.6148
lfoot -7.09382 4.07534
ltoes -18.9792
454
root -16.763 18.1115 1.81841 90.505 -81.2101 -80.9791
lowerback 0.98701 4.08647 8.26797
upperback -1.77236 5.55479 4.75616
thorax -2.08133 2.59821 0.180928
lowerneck -15.0394 3.18768 -0.44146
upperneck 9.56087 3.9378 3.26359
head 5.25213 2.14299 1.43956
rclavicle 7.87187e-014 8.98507e-014
rhumerus -9.94729 8.28687 -87.783
rradius 40.209
rwrist 9.01459
rhand -14.8861 -27.3662
rfingers 7.12502
rthumb 11.2746 -57.0432
lclavicle 7.87187e-014 8.98507e-014
lhumerus -33.567 8.70468 83.8095
lradius 37.8817
lwrist -20.3679
lhand -12.9986 20.0647
lfingers 7.12502
lthumb 13.0945 49.6336
rfemur -7.01958 1.51813 35.3904
rtibia 14.4457
rfoot -10.5204 -11.5938
rtoes 14.5258
lfemur -30.5035 -0.468404 -4.80799
ltibia 37.1142
lfoot -7.24971 4.23883
ltoes -18.8483
455
root -16.914 18.1015 1.82334 92.3012 -81.1762 -82.7309
lowerback 0.890192 4.1313 8.38084
upperback -1.79283 5.60472 4.71259
thorax -2.03075 2.62162 0.0816731
lowerneck -15.1153 3.15285 -0.497976
upperneck 9.63759 3.89144 3.33508
head 5.28703 2.12418 1.46983
rclavicle -2.17669e-014 -7.63333e-014
rhumerus -9.83482 8.83274 -87.8186
rradius 40.8901
rwrist 8.73311
rhand -14.9449 -27.2738
rfingers 7.12502
rthumb 11.2179 -56.9539
lclavicle -2.17669e-014 -7.63333e-014
lhumerus -33.779 9.0856 83.8007
lradius 37.292
lwrist -20.61
lhand -12.8198 20.0285
lfingers 7.12502
lthumb 13.2669 49.5862
rfemur -6.59579 1.52141 35.4313
rtibia 14.6292
rfoot -10.8078 -11.4172
rtoes 13.8292
lfemur -30.696 -0.490368 -4.74382
ltibia 35.6118
lfoot -7.34046 4.37855
ltoes -18.6989
456
root -17.0662 18.0908 1.82875 94.0711 -81.1376 -84.4596
lowerback 0.793121 4.17101 8.48637
upperback -1.81165 5.64746 4.66822
thorax -1.97909 2.64176 -0.0140878
lowerneck -15.1914 3.1139 -0.559791
upperneck 9.70659 3.84079 3.40677
head 5.31959 2.10311 1.50051
rclavicle 3.22031e-014 1.35174e-014
rhumerus -9.75257 9.34789 -87.849
rradius 41.5455
rwrist 8.46538
rhand -15.0033 -27.175
rfingers 7.12502
rthumb 11.1616 -56.8582
lclavicle 3.22031e-014 1.35174e-014
lhumerus -33.9895 9.51642 83.7618
lradius 36.6586
lwrist -20.8912
lhand -12.6495 20.0005
lfingers 7.12502
lthumb 13.431 49.5475
rfemur -6.19292 1.50931 35.4579
rtibia 14.862
rfoot -11.0866 -11.2316
rtoes 13.0891
lfemur -30.856 -0.528415 -4.68437
ltibia 34.1212
lfoot -7.37595 4.50093
ltoes -18.5586
457
root -17.2195 18.0794 1.83466 95.8223 -81.0958 -86.1741
lowerback 0.6965 4.2061 8.58368
upperback -1.82827 5.68374 4.62263
thorax -1.92625 2.65903 -0.106402
lowerneck -15.267 3.06969 -0.628681
upperneck 9.76753 3.78451 3.48021
head 5.34959 2.07914 1.53224
rclavicle -1.55052e-014 1.03368e-014
rhumerus -9.70004 9.83225 -87.8756
rradius 42.1714
rwrist 8.21245
rhand -15.0581 -27.067
rfingers 7.12502
rthumb 11.1088 -56.753
lclavicle -1.55052e-014 1.03368e-014
lhumerus -34.1976 9.99783 83.6909
lradius 35.9821
lwrist -21.2192
lhand -12.486 19.9834
lfingers 7.12502
lthumb 13.5887 49.52
rfemur -5.81387 1.47848 35.4676
rtibia 15.1504
rfoot -11.3548 -11.0333
rtoes 12.298
lfemur -30.9843 -0.583588 -4.63107
ltibia 32.6578
lfoot -7.35962 4.61617
ltoes -18.414
458
root -17.3741 18.0675 1.84102 97.5537 -81.0534 -87.8744
lowerback 0.60084 4.23599 8.6695
upperback -1.84169 5.71283 4.57556
thorax -1.87183 2.67318 -0.193827
lowerneck -15.3421 3.02011 -0.703091
upperneck 9.81967 3.72248 3.55312
head 5.37688 2.05212 1.56403
rclavicle 7.95139e-016 1.35174e-014
rhumerus -9.67415 10.2863 -87.8996
rradius 42.7614
rwrist 7.97686
rhand -15.1092 -26.9492
rfingers 7.12502
rthumb 11.0594 -56.6378
lclavicle 7.95139e-016 1.35174e-014
lhumerus -34.4022 10.532 83.586
lradius 35.2628
lwrist -21.5986
lhand -12.332 19.9735
lfingers 7.12502
lthumb 13.737 49.5
rfemur -5.46043 1.42989 35.4573
rtibia 15.4986
rfoot -11.6087 -10.824
rtoes 11.4686
lfemur -31.0822 -0.656565 -4.58652
ltibia 31.2351
lfoot -7.28894 4.72452
ltoes -18.2237
459
root -17.5299 18.0551 1.84784 99.2688 -81.011 -89.5651
lowerback 0.505407 4.26115 8.74376
upperback -1.85023 5.73515 4.52706
thorax -1.81371 2.68455 -0.276182
lowerneck -15.4193 2.96459 -0.785716
upperneck 9.8633 3.65417 3.62823
head 5.40188 2.02189 1.59717
rclavicle 5.25785e-014 3.18055e-014
rhumerus -9.6713 10.7079 -87.9216
rradius 43.3105
rwrist 7.75903
rhand -15.1571 -26.8227
rfingers 7.12502
rthumb 11.0132 -56.5138
lclavicle 5.25785e-014 3.18055e-014
lhumerus -34.5993 11.1214 83.4457
lradius 34.4996
lwrist -22.0379
lhand -12.1873 19.9728
lfingers 7.12502
lthumb 13.8765 49.4899
rfemur -5.13606 1.36337 35.4256
rtibia 15.9135
rfoot -11.8466 -10.6024
rtoes 10.6043
lfemur -31.1509 -0.747446 -4.55161
ltibia 29.8662
lfoot -7.18123 4.82251
ltoes -18.0063
460
root -17.6868 18.0422 1.85507 100.965 -80.9693 -91.2453
lowerback 0.411543 4.28051 8.80512
upperback -1.85439 5.74954 4.47723
thorax -1.75342 2.69252 -0.352837
lowerneck -15.4942 2.90347 -0.874921
upperneck 9.89787 3.57982 3.7048
head 5.42379 1.98855 1.6311
rclavicle 2.69353e-014 -3.97569e-014
rhumerus -9.69231 11.0974 -87.9443
rradius 43.8129
rwrist 7.56198
rhand -15.1992 -26.6903
rfingers 7.12502
rthumb 10.9727 -56.3836
lclavicle 2.69353e-014 -3.97569e-014
lhumerus -34.792 11.7694 83.266
lradius 33.6944
lwrist -22.5435
lhand -12.0525 19.983
lfingers 7.12502
lthumb 14.0064 49.4911
rfemur -4.84099 1.28063 35.3712
rtibia 16.3965
rfoot -12.0623 -10.3686
rtoes 9.71305
lfemur -31.1909 -0.857297 -4.52733
ltibia 28.5636
lfoot -7.04352 4.91757
ltoes -17.7701
461
root -17.8449 18.029 1.86276 102.663 -80.9288 -92.9351
lowerback 0.321379 4.29431 8.85393
upperback -1.85745 5.75694 4.42501
thorax -1.69545 2.69732 -0.425401
lowerneck -15.561 2.83662 -0.967568
upperneck 9.92481 3.49877 3.78147
head 5.44221 1.95176 1.66472
rclavicle -3.33958e-014 -6.44062e-014
rhumerus -9.74101 11.4575 -87.9716
rradius 44.263
rwrist 7.38517
rhand -15.2376 -26.5529
rfingers 7.12502
rthumb 10.9356 -56.2481
lclavicle -3.33958e-014 -6.44062e-014
lhumerus -34.9883 12.4775 83.0407
lradius 32.8508
lwrist -23.122
lhand -11.9278 19.9951
lfingers 7.12502
lthumb 14.1266 49.4949
rfemur -4.57975 1.18219 35.292
rtibia 16.9512
rfoot -12.2513 -10.1197
rtoes 8.80752
lfemur -31.2043 -0.983577 -4.51529
ltibia 27.3364
lfoot -6.87963 5.01373
ltoes -17.5104
